<svg xmlns="http://www.w3.org/2000/svg" xmlns:xlink="http://www.w3.org/1999/xlink" width="500" zoomAndPan="magnify" viewBox="0 0 375 374.999991" height="500" preserveAspectRatio="xMidYMid meet" version="1.0"><defs><g/><clipPath id="3261adcfbe"><path d="M 100.109375 37.5 L 274.859375 37.5 L 274.859375 210 L 100.109375 210 Z M 100.109375 37.5 " clip-rule="nonzero"/></clipPath><clipPath id="668f37a20d"><rect x="0" width="163" y="0" height="39"/></clipPath></defs><g clip-path="url(#3261adcfbe)"><path fill="#000000" d="M 194.730469 170.394531 C 193.871094 170.820312 193.007812 171.097656 192.328125 171.613281 C 191.011719 172.621094 189.503906 173.175781 188.015625 173.832031 C 185.824219 174.796875 184.132812 176.304688 183.195312 178.613281 C 181.804688 182.039062 181.070312 185.59375 180.9375 189.273438 C 180.832031 192.144531 180.855469 195.023438 180.773438 197.894531 C 180.746094 198.84375 180.65625 199.808594 180.4375 200.730469 C 179.863281 203.128906 178.203125 204.617188 176.027344 205.523438 C 173.828125 206.4375 171.570312 206.679688 169.359375 205.519531 C 168.09375 204.851562 167.1875 203.777344 166.640625 202.496094 C 165.050781 198.769531 163.507812 195.023438 162.03125 191.25 C 160.714844 187.886719 159.445312 184.5 157.617188 181.375 C 156.617188 179.667969 155.503906 178.011719 154.300781 176.445312 C 153.914062 175.949219 153.089844 175.695312 152.417969 175.539062 C 151.636719 175.359375 150.949219 175.054688 150.238281 174.691406 C 149.367188 174.246094 148.394531 173.980469 147.449219 173.6875 C 146.828125 173.5 146.421875 173.882812 146.039062 174.335938 C 142.246094 178.78125 139.730469 183.855469 138.152344 189.484375 C 137.339844 192.375 136.773438 195.300781 136.117188 198.210938 C 135.65625 200.265625 135.371094 202.367188 134.8125 204.394531 C 134.089844 207.019531 132.464844 208.894531 129.757812 209.679688 C 129.007812 209.898438 128.320312 209.96875 127.542969 209.699219 C 126.835938 209.453125 126.042969 209.449219 125.285156 209.34375 C 123.84375 209.152344 122.644531 208.476562 121.851562 207.289062 C 120.855469 205.804688 119.996094 204.226562 119.101562 202.675781 C 118.355469 201.382812 117.570312 200.105469 116.9375 198.761719 C 115.933594 196.628906 115.480469 194.320312 115.191406 192.007812 C 114.875 189.441406 114.632812 186.855469 114.546875 184.273438 C 114.4375 181 114.46875 177.71875 114.53125 174.445312 C 114.667969 167.382812 115.996094 160.554688 118.539062 153.941406 C 121.039062 147.445312 124.09375 141.246094 127.910156 135.429688 C 129.730469 132.65625 131.597656 129.917969 133.433594 127.160156 C 133.648438 126.835938 133.804688 126.472656 134.015625 126.070312 C 132.742188 125.714844 131.539062 125.390625 130.34375 125.042969 C 126.429688 123.898438 122.515625 122.753906 118.613281 121.582031 C 117.433594 121.230469 116.253906 120.871094 115.386719 119.867188 C 115.136719 119.574219 114.648438 119.488281 114.269531 119.308594 C 112.777344 118.59375 111.515625 117.566406 110.363281 116.386719 C 110.121094 116.144531 109.828125 115.949219 109.542969 115.753906 C 108.023438 114.71875 106.378906 113.832031 105.007812 112.628906 C 102.960938 110.828125 101.519531 108.5625 100.992188 105.816406 C 100.886719 105.269531 100.855469 104.707031 100.820312 104.148438 C 100.679688 101.835938 100.113281 99.53125 100.796875 97.203125 C 101.960938 93.25 102.988281 89.253906 104.226562 85.328125 C 106.496094 78.148438 108.375 70.882812 109.335938 63.40625 C 109.894531 59.058594 110.375 54.703125 110.882812 50.351562 C 110.941406 49.84375 110.960938 49.328125 111.011719 48.820312 C 111.109375 47.816406 111.558594 47.035156 112.496094 46.617188 C 113.457031 46.183594 114.378906 46.308594 115.167969 47.003906 C 116.726562 48.371094 118.230469 49.804688 119.8125 51.140625 C 123.597656 54.335938 127.535156 57.3125 131.878906 59.71875 C 132.457031 60.039062 132.957031 60.496094 133.421875 60.839844 C 136.339844 60.117188 139.285156 59.34375 142.25 58.664062 C 144.769531 58.085938 147.304688 57.582031 149.84375 57.113281 C 151.878906 56.734375 153.53125 55.722656 154.964844 54.285156 C 157.457031 51.789062 159.921875 49.265625 162.441406 46.796875 C 165.390625 43.910156 168.410156 41.09375 171.832031 38.757812 C 172.773438 38.117188 173.808594 37.523438 174.957031 38.046875 C 175.621094 38.351562 176.257812 38.886719 176.699219 39.476562 C 178.234375 41.53125 179.726562 43.625 181.152344 45.761719 C 182.964844 48.484375 185.171875 50.890625 187.1875 53.453125 C 188.792969 55.496094 190.242188 57.691406 191.550781 59.9375 C 193.683594 63.609375 194.808594 67.71875 196.285156 71.667969 C 197.582031 75.125 198.570312 78.699219 198.898438 82.386719 C 199.078125 84.421875 198.972656 86.492188 198.828125 88.535156 C 198.550781 92.558594 197.429688 96.382812 195.824219 100.070312 C 194.535156 103.027344 192.742188 105.667969 190.679688 108.128906 C 187.132812 112.359375 182.554688 114.808594 177.195312 115.890625 C 175.023438 116.328125 172.859375 116.769531 170.691406 117.21875 C 170.34375 117.292969 169.878906 117.308594 170.003906 117.867188 C 170.113281 118.378906 170.007812 118.988281 170.804688 119.144531 C 173.082031 119.597656 175.347656 119.425781 177.605469 119.089844 C 182.300781 118.386719 187.019531 118.207031 191.753906 118.316406 C 194.039062 118.371094 196.320312 118.445312 198.605469 118.503906 C 201.890625 118.582031 205.175781 118.625 208.457031 118.730469 C 213.226562 118.886719 217.996094 119.078125 222.671875 120.179688 C 222.761719 120.203125 222.878906 120.246094 222.945312 120.207031 C 224.203125 119.511719 225.722656 119.574219 226.933594 118.632812 C 228.367188 117.523438 229.945312 116.601562 231.503906 115.667969 C 232.152344 115.277344 232.886719 114.996094 233.703125 115.230469 C 233.851562 115.273438 234.066406 115.1875 234.21875 115.105469 C 237.707031 113.246094 241.019531 111.132812 243.886719 108.378906 C 245.300781 107.019531 246.742188 105.695312 248.132812 104.316406 C 250.835938 101.636719 252.972656 98.527344 254.84375 95.230469 C 255.464844 94.136719 256.03125 93.003906 256.5625 91.863281 C 257.804688 89.214844 257.675781 86.457031 256.804688 83.789062 C 256.0625 81.511719 255.003906 79.335938 254.007812 77.148438 C 252.894531 74.703125 252.242188 72.164062 251.90625 69.5 C 251.539062 66.570312 252.59375 64.027344 253.78125 61.515625 C 254.25 60.523438 254.957031 59.621094 255.675781 58.773438 C 256.800781 57.441406 258.40625 57.109375 260.042969 56.832031 C 262.664062 56.386719 264.542969 57.65625 266.320312 59.335938 C 269.964844 62.78125 272.019531 67.042969 273.015625 71.917969 C 273.777344 75.628906 274.109375 79.375 274.445312 83.140625 C 274.859375 87.769531 273.777344 92.078125 271.886719 96.179688 C 269.917969 100.457031 267.636719 104.589844 265.535156 108.808594 C 264.117188 111.652344 262.105469 114.015625 259.855469 116.207031 C 257.535156 118.472656 255.261719 120.789062 252.867188 122.972656 C 250.140625 125.460938 246.925781 127.148438 243.445312 128.332031 C 243.207031 128.414062 242.96875 128.507812 242.6875 128.609375 C 243.335938 129.546875 243.976562 130.421875 244.566406 131.332031 C 245.847656 133.316406 246.496094 135.570312 247.285156 137.765625 C 249.0625 142.734375 250.898438 147.679688 252.660156 152.65625 C 253.679688 155.535156 254.570312 158.460938 255.5625 161.351562 C 256.859375 165.125 257.527344 169.023438 257.980469 172.972656 C 258.25 175.332031 258.628906 177.675781 258.957031 180.03125 C 259.460938 183.621094 259.222656 187.109375 257.542969 190.394531 C 257.265625 190.933594 256.921875 191.4375 256.570312 191.929688 C 255.964844 192.78125 255.3125 193.597656 254.710938 194.449219 C 252.96875 196.925781 249.441406 197.5 246.789062 195.667969 C 246.074219 195.171875 245.5 194.472656 244.839844 193.890625 C 244.457031 193.558594 244.039062 193.269531 243.617188 192.984375 C 241.945312 191.851562 240.984375 190.164062 239.871094 188.535156 C 237.957031 185.734375 236.429688 182.71875 234.714844 179.808594 C 232.894531 176.722656 230.292969 174.433594 227.273438 172.546875 C 225.488281 171.4375 223.664062 170.449219 221.632812 169.695312 C 221.558594 170.445312 221.539062 171.160156 221.40625 171.855469 C 221.144531 173.242188 220.859375 174.628906 220.511719 176 C 220.253906 177.007812 219.890625 177.984375 219.558594 178.972656 C 219.484375 179.1875 219.375 179.40625 219.230469 179.582031 C 218.53125 180.441406 217.792969 181.273438 217.113281 182.148438 C 215.535156 184.183594 213.367188 185.125 210.929688 185.625 C 209.046875 186.011719 207.355469 185.523438 205.707031 184.65625 C 204.640625 184.09375 203.53125 183.609375 202.433594 183.101562 C 200.65625 182.273438 199.328125 180.9375 198.113281 179.425781 C 196.289062 177.144531 195.261719 174.550781 194.808594 171.695312 C 194.75 171.328125 194.761719 170.949219 194.730469 170.394531 Z M 117.785156 91.355469 C 117.84375 91.863281 117.855469 92.359375 117.96875 92.832031 C 118.4375 94.855469 119.828125 96.035156 121.726562 96.558594 C 123.277344 96.988281 124.886719 97.214844 126.484375 97.464844 C 128.542969 97.789062 130.527344 97.484375 132.300781 96.359375 C 133.792969 95.414062 134.722656 94.054688 134.449219 91.789062 C 134.332031 90.832031 134.316406 89.863281 134.273438 88.902344 C 134.234375 87.917969 134.015625 87.023438 133.273438 86.308594 C 132.941406 85.992188 132.613281 85.648438 132.371094 85.265625 C 131.257812 83.5 129.820312 82.203125 127.675781 81.894531 C 127.128906 81.8125 126.5625 81.820312 126.023438 81.703125 C 123.511719 81.167969 121.183594 81.863281 119.808594 84.140625 C 118.464844 86.355469 118.070312 88.847656 117.785156 91.355469 Z M 165.253906 89.167969 C 167.035156 89.265625 168.613281 88.476562 169.828125 86.871094 C 170.109375 86.5 170.539062 86.246094 170.890625 85.925781 C 171.25 85.597656 171.71875 85.320312 171.921875 84.914062 C 172.636719 83.492188 173.289062 82.039062 173.898438 80.570312 C 174.097656 80.089844 174.15625 79.535156 174.183594 79.003906 C 174.320312 76.492188 173.285156 74.496094 171.382812 72.925781 C 169.746094 71.582031 167.367188 71.402344 165.921875 72.886719 C 165.773438 73.035156 165.46875 73.089844 165.238281 73.085938 C 163.664062 73.039062 162.394531 73.613281 161.410156 74.855469 C 160.964844 75.417969 160.519531 76.003906 159.96875 76.460938 C 158.859375 77.382812 158.253906 78.558594 158.238281 79.953125 C 158.210938 82.328125 158.816406 84.5625 160.195312 86.515625 C 161.359375 88.171875 162.847656 89.320312 165.253906 89.167969 Z M 146.96875 102.855469 C 147.613281 103.339844 148.238281 103.871094 148.921875 104.3125 C 151.824219 106.183594 153.445312 106.269531 155.875 104.566406 C 156.589844 104.066406 157.089844 103.402344 157.214844 102.527344 C 157.300781 101.921875 157.226562 101.277344 156.640625 100.921875 C 156.03125 100.554688 155.535156 100.945312 155.089844 101.332031 C 154.898438 101.496094 154.742188 101.707031 154.574219 101.898438 C 153.75 102.871094 152.796875 103.128906 151.664062 102.605469 C 150.144531 101.910156 148.84375 100.886719 147.777344 99.613281 C 147.324219 99.074219 146.863281 98.710938 146.1875 98.863281 C 145.472656 99.027344 145.265625 99.644531 145.023438 100.289062 C 144.742188 101.050781 144.363281 101.828125 143.835938 102.429688 C 143.140625 103.21875 142 103.042969 141.367188 102.246094 C 140.9375 101.707031 140.425781 101.269531 139.652344 101.449219 C 138.90625 101.625 138.585938 102.195312 138.523438 102.875 C 138.441406 103.757812 138.96875 104.378906 139.664062 104.816406 C 141.453125 105.9375 144.421875 106.039062 145.992188 104.011719 C 146.300781 103.613281 146.640625 103.242188 146.96875 102.855469 Z M 176.71875 94.628906 C 176.78125 94.605469 176.96875 94.53125 177.164062 94.476562 C 179.1875 93.917969 181.210938 93.363281 183.230469 92.800781 C 183.75 92.65625 184.203125 92.433594 184.140625 91.769531 C 184.078125 91.0625 183.507812 91.015625 183.011719 90.980469 C 180.078125 90.773438 177.226562 91.144531 174.5 92.285156 C 173.886719 92.539062 173.324219 92.875 173.203125 93.617188 C 173.066406 94.4375 173.527344 94.921875 174.179688 95.269531 C 174.085938 96.5 174.328125 96.917969 175.515625 97.292969 C 178.0625 98.101562 180.691406 98.316406 183.347656 98.269531 C 183.828125 98.261719 184.214844 97.964844 184.1875 97.511719 C 184.167969 97.199219 183.855469 96.851562 183.585938 96.617188 C 183.375 96.433594 183.039062 96.390625 182.75 96.308594 C 180.710938 95.734375 178.667969 95.171875 176.71875 94.628906 Z M 110.472656 111.386719 C 110.734375 111.316406 110.847656 111.296875 110.957031 111.253906 C 112.386719 110.722656 113.839844 110.242188 115.242188 109.636719 C 117.679688 108.585938 120.066406 107.402344 122.679688 106.808594 C 122.925781 106.753906 123.207031 106.667969 123.371094 106.5 C 123.628906 106.234375 123.984375 105.871094 123.960938 105.582031 C 123.933594 105.28125 123.53125 104.816406 123.242188 104.773438 C 122.382812 104.640625 121.460938 104.511719 120.632812 104.691406 C 118.058594 105.242188 115.707031 106.414062 113.425781 107.695312 C 112.316406 108.320312 111.257812 109.050781 110.226562 109.804688 C 109.972656 109.988281 109.796875 110.476562 109.832031 110.796875 C 109.855469 111.03125 110.28125 111.226562 110.472656 111.386719 Z M 124.0625 110.226562 C 123.929688 109.488281 123.464844 109.179688 122.707031 109.394531 C 121.074219 109.855469 119.425781 110.359375 118.113281 111.46875 C 116.585938 112.757812 115.175781 114.1875 113.722656 115.558594 C 113.347656 115.917969 113.039062 116.355469 113.445312 116.835938 C 113.828125 117.289062 114.300781 117.160156 114.753906 116.839844 C 116.363281 115.707031 117.96875 114.558594 119.609375 113.472656 C 120.652344 112.78125 121.792969 112.234375 122.828125 111.535156 C 123.3125 111.207031 123.65625 110.667969 124.0625 110.226562 Z M 178.691406 103.105469 C 179.59375 103.042969 180.5 102.964844 181.40625 102.925781 C 181.945312 102.902344 182.386719 102.777344 182.453125 102.160156 C 182.527344 101.523438 182.105469 101.316406 181.578125 101.207031 C 179.140625 100.699219 176.710938 100.164062 174.265625 99.699219 C 173.90625 99.628906 173.410156 99.765625 173.113281 99.992188 C 172.328125 100.585938 172.5 101.546875 173.425781 102.089844 C 175.0625 103.042969 176.871094 103.0625 178.691406 103.105469 Z M 127.808594 116.421875 C 127.574219 116.113281 127.371094 115.625 127.023438 115.464844 C 126.667969 115.304688 126.039062 115.304688 125.75 115.523438 C 124.792969 116.253906 123.921875 117.113281 123.515625 118.292969 C 123.417969 118.574219 123.464844 119.046875 123.648438 119.234375 C 123.832031 119.425781 124.289062 119.484375 124.585938 119.417969 C 125.84375 119.125 126.695312 118.222656 127.5 117.289062 C 127.648438 117.113281 127.671875 116.828125 127.808594 116.421875 Z M 127.808594 116.421875 " fill-opacity="1" fill-rule="nonzero"/></g><path fill="#ffffff" d="M 117.785156 91.355469 C 118.070312 88.851562 118.464844 86.355469 119.808594 84.136719 C 121.183594 81.859375 123.511719 81.164062 126.023438 81.703125 C 126.5625 81.820312 127.128906 81.8125 127.675781 81.890625 C 129.820312 82.203125 131.257812 83.5 132.371094 85.265625 C 132.613281 85.648438 132.941406 85.988281 133.273438 86.308594 C 134.015625 87.023438 134.234375 87.917969 134.273438 88.902344 C 134.316406 89.863281 134.332031 90.832031 134.449219 91.789062 C 134.722656 94.054688 133.792969 95.414062 132.300781 96.359375 C 130.527344 97.484375 128.542969 97.785156 126.484375 97.464844 C 124.890625 97.214844 123.277344 96.984375 121.726562 96.558594 C 119.828125 96.035156 118.4375 94.851562 117.96875 92.828125 C 117.855469 92.359375 117.84375 91.863281 117.785156 91.355469 Z M 129.027344 92.113281 C 128.855469 91.46875 128.679688 90.824219 128.515625 90.179688 C 128.191406 88.882812 127.949219 87.5625 127.53125 86.292969 C 127.1875 85.238281 126.207031 84.570312 125.488281 84.671875 C 123.941406 84.890625 122.980469 85.628906 122.796875 86.871094 C 122.667969 87.738281 122.691406 88.628906 122.613281 89.507812 C 122.476562 91.015625 122.980469 92.277344 124.183594 93.148438 C 124.734375 93.546875 125.5 93.636719 126.144531 93.929688 C 127.726562 94.648438 128.945312 93.878906 129.027344 92.113281 Z M 129.027344 92.113281 " fill-opacity="1" fill-rule="nonzero"/><path fill="#ffffff" d="M 165.253906 89.167969 C 162.847656 89.320312 161.359375 88.171875 160.195312 86.515625 C 158.816406 84.5625 158.207031 82.328125 158.238281 79.953125 C 158.253906 78.558594 158.859375 77.382812 159.96875 76.460938 C 160.515625 76.003906 160.960938 75.417969 161.410156 74.855469 C 162.394531 73.613281 163.660156 73.039062 165.238281 73.085938 C 165.464844 73.089844 165.773438 73.035156 165.917969 72.886719 C 167.367188 71.402344 169.742188 71.582031 171.378906 72.925781 C 173.285156 74.496094 174.320312 76.492188 174.183594 79.003906 C 174.15625 79.53125 174.097656 80.089844 173.898438 80.570312 C 173.285156 82.039062 172.636719 83.492188 171.921875 84.914062 C 171.71875 85.320312 171.246094 85.597656 170.890625 85.925781 C 170.539062 86.246094 170.109375 86.5 169.828125 86.871094 C 168.613281 88.476562 167.035156 89.265625 165.253906 89.167969 Z M 168.304688 81.921875 C 168.304688 80.671875 167.792969 79.058594 166.996094 78.101562 C 166.484375 77.484375 165.953125 76.835938 165.039062 76.792969 C 163.605469 76.726562 162.363281 77.929688 162.300781 79.550781 C 162.273438 80.347656 162.554688 81.171875 162.457031 81.953125 C 162.328125 82.996094 162.578125 83.941406 162.882812 84.878906 C 163.214844 85.90625 164.472656 86.128906 165.175781 85.300781 C 165.480469 84.945312 165.746094 84.667969 166.257812 84.777344 C 166.378906 84.804688 166.527344 84.738281 166.65625 84.695312 C 167.742188 84.339844 168.304688 83.394531 168.304688 81.921875 Z M 168.304688 81.921875 " fill-opacity="1" fill-rule="nonzero"/><path fill="#ffffff" d="M 146.96875 102.855469 C 146.640625 103.242188 146.300781 103.613281 145.992188 104.015625 C 144.421875 106.039062 141.453125 105.9375 139.664062 104.816406 C 138.96875 104.382812 138.441406 103.757812 138.523438 102.875 C 138.585938 102.195312 138.90625 101.625 139.652344 101.453125 C 140.425781 101.269531 140.9375 101.707031 141.367188 102.246094 C 142 103.042969 143.140625 103.21875 143.835938 102.429688 C 144.363281 101.832031 144.742188 101.050781 145.023438 100.292969 C 145.265625 99.648438 145.472656 99.027344 146.1875 98.863281 C 146.863281 98.710938 147.324219 99.074219 147.777344 99.613281 C 148.84375 100.886719 150.144531 101.910156 151.664062 102.605469 C 152.796875 103.128906 153.75 102.871094 154.574219 101.902344 C 154.742188 101.707031 154.898438 101.496094 155.089844 101.332031 C 155.535156 100.949219 156.03125 100.554688 156.640625 100.921875 C 157.226562 101.277344 157.300781 101.921875 157.214844 102.527344 C 157.089844 103.402344 156.589844 104.066406 155.875 104.570312 C 153.445312 106.273438 151.820312 106.183594 148.921875 104.3125 C 148.238281 103.871094 147.613281 103.339844 146.96875 102.855469 Z M 146.96875 102.855469 " fill-opacity="1" fill-rule="nonzero"/><path fill="#ffffff" d="M 176.71875 94.628906 C 178.667969 95.171875 180.710938 95.738281 182.75 96.308594 C 183.039062 96.390625 183.375 96.433594 183.585938 96.617188 C 183.855469 96.851562 184.167969 97.199219 184.1875 97.515625 C 184.214844 97.964844 183.828125 98.261719 183.347656 98.269531 C 180.691406 98.320312 178.0625 98.101562 175.515625 97.292969 C 174.328125 96.917969 174.085938 96.5 174.179688 95.269531 C 173.527344 94.921875 173.066406 94.4375 173.203125 93.617188 C 173.324219 92.875 173.886719 92.539062 174.5 92.285156 C 177.226562 91.144531 180.078125 90.773438 183.011719 90.980469 C 183.507812 91.015625 184.078125 91.0625 184.140625 91.769531 C 184.203125 92.433594 183.75 92.65625 183.230469 92.800781 C 181.210938 93.363281 179.1875 93.917969 177.164062 94.476562 C 176.972656 94.53125 176.78125 94.605469 176.71875 94.628906 Z M 176.71875 94.628906 " fill-opacity="1" fill-rule="nonzero"/><path fill="#ffffff" d="M 110.472656 111.386719 C 110.28125 111.226562 109.855469 111.03125 109.832031 110.796875 C 109.800781 110.476562 109.972656 109.988281 110.226562 109.804688 C 111.257812 109.046875 112.316406 108.320312 113.425781 107.695312 C 115.707031 106.414062 118.058594 105.242188 120.632812 104.691406 C 121.460938 104.515625 122.382812 104.640625 123.242188 104.773438 C 123.53125 104.816406 123.933594 105.28125 123.960938 105.582031 C 123.984375 105.871094 123.628906 106.234375 123.371094 106.5 C 123.207031 106.667969 122.925781 106.753906 122.679688 106.808594 C 120.066406 107.402344 117.679688 108.585938 115.242188 109.636719 C 113.839844 110.242188 112.386719 110.722656 110.957031 111.253906 C 110.847656 111.296875 110.734375 111.316406 110.472656 111.386719 Z M 110.472656 111.386719 " fill-opacity="1" fill-rule="nonzero"/><path fill="#ffffff" d="M 124.0625 110.226562 C 123.65625 110.667969 123.3125 111.207031 122.828125 111.535156 C 121.792969 112.234375 120.652344 112.78125 119.609375 113.472656 C 117.96875 114.558594 116.363281 115.703125 114.753906 116.839844 C 114.300781 117.160156 113.828125 117.289062 113.445312 116.835938 C 113.039062 116.355469 113.34375 115.914062 113.722656 115.558594 C 115.175781 114.183594 116.585938 112.757812 118.113281 111.464844 C 119.425781 110.359375 121.074219 109.851562 122.707031 109.394531 C 123.464844 109.179688 123.933594 109.488281 124.0625 110.226562 Z M 124.0625 110.226562 " fill-opacity="1" fill-rule="nonzero"/><path fill="#ffffff" d="M 178.691406 103.105469 C 176.871094 103.0625 175.0625 103.042969 173.425781 102.089844 C 172.5 101.546875 172.328125 100.582031 173.113281 99.992188 C 173.410156 99.765625 173.90625 99.628906 174.265625 99.699219 C 176.710938 100.164062 179.140625 100.699219 181.578125 101.207031 C 182.105469 101.316406 182.527344 101.523438 182.453125 102.15625 C 182.386719 102.777344 181.945312 102.902344 181.40625 102.925781 C 180.5 102.960938 179.59375 103.042969 178.691406 103.105469 Z M 178.691406 103.105469 " fill-opacity="1" fill-rule="nonzero"/><path fill="#ffffff" d="M 127.808594 116.421875 C 127.671875 116.828125 127.648438 117.113281 127.5 117.285156 C 126.695312 118.222656 125.84375 119.125 124.585938 119.414062 C 124.289062 119.484375 123.832031 119.425781 123.644531 119.234375 C 123.464844 119.046875 123.417969 118.574219 123.515625 118.292969 C 123.921875 117.113281 124.792969 116.25 125.746094 115.523438 C 126.039062 115.304688 126.667969 115.304688 127.023438 115.464844 C 127.371094 115.625 127.570312 116.113281 127.808594 116.421875 Z M 127.808594 116.421875 " fill-opacity="1" fill-rule="nonzero"/><path fill="#000000" d="M 129.027344 92.113281 C 128.945312 93.878906 127.726562 94.648438 126.144531 93.929688 C 125.503906 93.636719 124.734375 93.546875 124.183594 93.148438 C 122.980469 92.273438 122.476562 91.015625 122.613281 89.507812 C 122.695312 88.628906 122.667969 87.738281 122.796875 86.871094 C 122.980469 85.628906 123.941406 84.890625 125.492188 84.671875 C 126.207031 84.570312 127.1875 85.238281 127.53125 86.292969 C 127.949219 87.5625 128.191406 88.882812 128.515625 90.179688 C 128.679688 90.824219 128.855469 91.46875 129.027344 92.113281 Z M 129.027344 92.113281 " fill-opacity="1" fill-rule="nonzero"/><path fill="#000000" d="M 168.304688 81.921875 C 168.304688 83.394531 167.742188 84.339844 166.65625 84.695312 C 166.527344 84.738281 166.378906 84.804688 166.257812 84.777344 C 165.746094 84.667969 165.480469 84.945312 165.175781 85.300781 C 164.472656 86.125 163.214844 85.90625 162.882812 84.878906 C 162.578125 83.941406 162.328125 82.996094 162.457031 81.953125 C 162.554688 81.171875 162.273438 80.347656 162.300781 79.550781 C 162.363281 77.929688 163.605469 76.726562 165.039062 76.792969 C 165.953125 76.835938 166.484375 77.484375 166.996094 78.101562 C 167.792969 79.058594 168.304688 80.671875 168.304688 81.921875 Z M 168.304688 81.921875 " fill-opacity="1" fill-rule="nonzero"/><g fill="#000000" fill-opacity="1"><g transform="translate(133.502926, 258.210629)"><g><path d="M 11.71875 3.875 L 7.515625 3.875 C 7.515625 -9.664062 7.503906 -16.476562 7.484375 -16.5625 L 7.484375 -16.640625 L 2.046875 -16.640625 L 2.046875 -20.875 L 7.359375 -20.875 L 7.359375 -23.765625 L 2.3125 -23.765625 L 2.3125 -27.953125 L 12.6875 -27.953125 L 13.046875 -29.046875 L 13.3125 -29.046875 C 13.476562 -29.046875 14.207031 -29.046875 15.5 -29.046875 C 16.789062 -29.046875 17.4375 -29.03125 17.4375 -29 L 17.15625 -28.046875 C 16.707031 -26.472656 16.390625 -25.523438 16.203125 -25.203125 C 15.828125 -24.554688 15.238281 -24.128906 14.4375 -23.921875 C 14.28125 -23.867188 13.375 -23.816406 11.71875 -23.765625 L 11.71875 -20.875 L 16.765625 -20.875 L 16.796875 -16.640625 L 11.71875 -16.640625 Z M 31 3.84375 L 26.359375 3.84375 L 26.3125 -2.84375 C 24.957031 -2.570312 23.597656 -2.34375 22.234375 -2.15625 L 17.234375 -1.3125 L 17.234375 -5.71875 C 17.265625 -5.71875 17.53125 -5.785156 18.03125 -5.921875 C 18.539062 -6.054688 18.90625 -6.125 19.125 -6.125 C 19.601562 -6.226562 20.226562 -6.332031 21 -6.4375 C 21.769531 -6.539062 23.101562 -6.769531 25 -7.125 L 26.28125 -7.3125 C 26.28125 -19.957031 26.265625 -26.757812 26.234375 -27.71875 L 26.203125 -29.046875 L 30.953125 -29.046875 C 30.953125 -15.046875 30.96875 -8.046875 31 -8.046875 C 31.03125 -8.046875 31.175781 -8.078125 31.4375 -8.140625 C 31.707031 -8.203125 31.972656 -8.257812 32.234375 -8.3125 C 32.503906 -8.375 32.664062 -8.40625 32.71875 -8.40625 C 32.957031 -8.507812 33.460938 -8.5625 34.234375 -8.5625 L 34.234375 -4.203125 C 33.617188 -4.117188 33.128906 -4.035156 32.765625 -3.953125 L 31.484375 -3.640625 L 31 -3.5625 L 31.046875 -0.40625 C 31.046875 2.019531 31.03125 3.4375 31 3.84375 Z M 21.921875 -20.484375 C 21.578125 -20.484375 21.21875 -20.550781 20.84375 -20.6875 C 19.71875 -21.101562 19.15625 -21.925781 19.15625 -23.15625 C 19.15625 -24.25 19.632812 -25.050781 20.59375 -25.5625 C 21.019531 -25.769531 21.445312 -25.875 21.875 -25.875 C 22.570312 -25.875 23.1875 -25.59375 23.71875 -25.03125 C 24.25 -24.476562 24.515625 -23.816406 24.515625 -23.046875 C 24.515625 -22.878906 24.476562 -22.628906 24.40625 -22.296875 C 24.34375 -21.960938 24.140625 -21.625 23.796875 -21.28125 C 23.265625 -20.75 22.640625 -20.484375 21.921875 -20.484375 Z M 21.6875 -11.078125 C 21.46875 -11.078125 21.238281 -11.101562 21 -11.15625 C 19.582031 -11.53125 18.875 -12.425781 18.875 -13.84375 C 18.875 -14.1875 18.898438 -14.4375 18.953125 -14.59375 C 19.359375 -15.875 20.203125 -16.515625 21.484375 -16.515625 C 21.722656 -16.515625 21.960938 -16.488281 22.203125 -16.4375 C 22.648438 -16.300781 23.0625 -16.0625 23.4375 -15.71875 C 23.8125 -15.375 24.050781 -14.988281 24.15625 -14.5625 C 24.207031 -14.394531 24.234375 -14.15625 24.234375 -13.84375 C 24.234375 -13.488281 24.207031 -13.25 24.15625 -13.125 C 24.082031 -12.800781 23.953125 -12.503906 23.765625 -12.234375 C 23.578125 -11.972656 23.351562 -11.738281 23.09375 -11.53125 C 22.84375 -11.332031 22.597656 -11.207031 22.359375 -11.15625 C 22.117188 -11.101562 21.894531 -11.078125 21.6875 -11.078125 Z M 5 1.078125 C 4.863281 1.128906 4.320312 1.15625 3.375 1.15625 C 2.425781 1.15625 1.945312 1.148438 1.9375 1.140625 C 1.925781 1.128906 1.910156 0.59375 1.890625 -0.46875 C 1.878906 -1.539062 1.890625 -2.34375 1.921875 -2.875 L 1.921875 -3.234375 L 3.046875 -3.234375 L 3.046875 -14.4375 C 3.046875 -14.46875 4.164062 -14.484375 6.40625 -14.484375 C 6.40625 -5.203125 6.390625 -0.492188 6.359375 -0.359375 C 6.253906 0.359375 5.800781 0.835938 5 1.078125 Z M 14.921875 -4.59375 C 13.609375 -4.59375 12.890625 -5.179688 12.765625 -6.359375 L 12.765625 -14.15625 L 16.203125 -14.15625 C 16.253906 -9.4375 16.289062 -6.878906 16.3125 -6.484375 C 16.3125 -5.921875 16.296875 -5.539062 16.265625 -5.34375 C 16.242188 -5.144531 16.15625 -4.976562 16 -4.84375 C 15.945312 -4.757812 15.835938 -4.695312 15.671875 -4.65625 C 15.515625 -4.613281 15.265625 -4.59375 14.921875 -4.59375 Z M 14.921875 -4.59375 "/></g></g></g><g fill="#000000" fill-opacity="1"><g transform="translate(169.499353, 258.210629)"><g><path d="M 31.875 4.046875 C 30.625 4.046875 29.71875 3.953125 29.15625 3.765625 C 28.46875 3.523438 27.875 3.175781 27.375 2.71875 C 26.882812 2.269531 26.195312 1.390625 25.3125 0.078125 L 24.953125 -0.359375 C 24.898438 -0.328125 24.769531 -0.128906 24.5625 0.234375 C 24 1.203125 23.625 1.804688 23.4375 2.046875 C 22.769531 2.953125 21.972656 3.535156 21.046875 3.796875 C 20.429688 3.960938 18.75 4.046875 16 4.046875 L 16 -0.640625 C 18.1875 -0.640625 19.28125 -0.648438 19.28125 -0.671875 C 19.28125 -0.703125 19.535156 -1.144531 20.046875 -2 L 20.234375 -2.234375 C 20.828125 -3.304688 21.320312 -4.125 21.71875 -4.6875 L 21.84375 -4.921875 C 21.84375 -4.941406 21.773438 -5.046875 21.640625 -5.234375 C 21.078125 -6.066406 20.675781 -6.628906 20.4375 -6.921875 C 18.007812 -10.515625 16.796875 -12.351562 16.796875 -12.4375 L 22.234375 -12.484375 C 23.253906 -11.035156 23.859375 -10.15625 24.046875 -9.84375 C 24.390625 -9.363281 24.570312 -9.125 24.59375 -9.125 C 24.59375 -9.226562 24.941406 -9.757812 25.640625 -10.71875 C 25.742188 -10.9375 25.925781 -11.242188 26.1875 -11.640625 C 26.457031 -12.035156 26.648438 -12.316406 26.765625 -12.484375 C 27.453125 -13.523438 27.804688 -14.050781 27.828125 -14.0625 C 27.859375 -14.070312 27.890625 -14.101562 27.921875 -14.15625 L 27.765625 -14.203125 C 27.648438 -14.203125 27.382812 -14.203125 26.96875 -14.203125 C 26.5625 -14.203125 26.015625 -14.203125 25.328125 -14.203125 C 24.648438 -14.203125 23.660156 -14.203125 22.359375 -14.203125 L 16.84375 -14.203125 L 16.796875 -18.875 C 19.992188 -18.875 21.941406 -18.898438 22.640625 -18.953125 L 22.640625 -22.40625 L 16.6875 -22.4375 L 16.6875 -26.765625 L 22.59375 -26.765625 L 22.640625 -27.921875 C 22.640625 -28.691406 22.648438 -29.085938 22.671875 -29.109375 C 22.703125 -29.140625 23.492188 -29.15625 25.046875 -29.15625 L 27.3125 -29.125 L 27.3125 -26.796875 C 28.570312 -26.796875 29.75 -26.785156 30.84375 -26.765625 L 33.40625 -26.765625 L 33.40625 -22.4375 L 27.359375 -22.40625 L 27.359375 -18.921875 L 30.921875 -18.921875 C 31.609375 -18.765625 32.085938 -18.578125 32.359375 -18.359375 C 33.242188 -17.742188 33.6875 -17.023438 33.6875 -16.203125 C 33.6875 -15.585938 33.285156 -14.625 32.484375 -13.3125 C 32.347656 -13.101562 32.265625 -12.957031 32.234375 -12.875 L 31.203125 -11.15625 C 30.367188 -9.851562 29.316406 -8 28.046875 -5.59375 L 27.765625 -5.125 L 28.046875 -4.6875 L 30 -1.921875 L 31.046875 -0.5625 L 34.078125 -0.5625 L 34.078125 3.953125 Z M 5.359375 4.046875 L 2.4375 4.046875 C 2.4375 1.109375 2.453125 -0.519531 2.484375 -0.84375 L 6.3125 -0.875 L 6.3125 -8.484375 L 6 -8.40625 L 5.640625 -8.3125 C 5.484375 -8.289062 5.289062 -8.253906 5.0625 -8.203125 C 4.832031 -8.148438 4.632812 -8.109375 4.46875 -8.078125 C 4.3125 -8.054688 4.207031 -8.03125 4.15625 -8 L 3.359375 -7.84375 C 3.304688 -7.84375 3.242188 -7.832031 3.171875 -7.8125 C 3.109375 -7.800781 3.035156 -7.78125 2.953125 -7.75 C 2.878906 -7.726562 2.816406 -7.710938 2.765625 -7.703125 C 2.710938 -7.691406 2.644531 -7.675781 2.5625 -7.65625 C 2.476562 -7.644531 2.410156 -7.625 2.359375 -7.59375 C 1.929688 -7.519531 1.664062 -7.484375 1.5625 -7.484375 L 1.515625 -7.484375 C 1.492188 -7.484375 1.484375 -8.21875 1.484375 -9.6875 C 1.484375 -11.144531 1.492188 -11.890625 1.515625 -11.921875 L 1.59375 -11.921875 C 1.65625 -11.941406 1.691406 -11.953125 1.703125 -11.953125 C 1.710938 -11.953125 1.738281 -11.957031 1.78125 -11.96875 C 1.820312 -11.988281 1.859375 -12.003906 1.890625 -12.015625 C 1.929688 -12.035156 1.96875 -12.050781 2 -12.0625 C 2.03125 -12.070312 2.164062 -12.101562 2.40625 -12.15625 C 2.457031 -12.1875 2.707031 -12.25 3.15625 -12.34375 C 3.613281 -12.4375 4.066406 -12.535156 4.515625 -12.640625 C 5.109375 -12.796875 5.695312 -12.929688 6.28125 -13.046875 L 6.3125 -20.203125 L 1.765625 -20.203125 C 1.765625 -23.242188 1.773438 -24.765625 1.796875 -24.765625 L 6.3125 -24.765625 L 6.3125 -28.796875 L 11.15625 -28.796875 L 11.203125 -24.765625 L 15.078125 -24.765625 L 15.078125 -20.203125 L 13.203125 -20.203125 C 13.015625 -20.203125 12.816406 -20.203125 12.609375 -20.203125 C 12.410156 -20.203125 12.238281 -20.203125 12.09375 -20.203125 C 11.945312 -20.203125 11.804688 -20.203125 11.671875 -20.203125 C 11.546875 -20.203125 11.445312 -20.191406 11.375 -20.171875 C 11.3125 -20.160156 11.265625 -20.15625 11.234375 -20.15625 C 11.210938 -20.15625 11.203125 -18.117188 11.203125 -14.046875 L 11.59375 -14.125 C 11.65625 -14.144531 11.757812 -14.175781 11.90625 -14.21875 C 12.050781 -14.257812 12.160156 -14.28125 12.234375 -14.28125 C 12.535156 -14.363281 12.765625 -14.40625 12.921875 -14.40625 L 14.046875 -14.6875 C 14.335938 -14.738281 14.550781 -14.765625 14.6875 -14.765625 L 14.6875 -10.4375 L 11.203125 -9.5625 C 11.203125 -1.769531 11.160156 2.203125 11.078125 2.359375 C 10.816406 3.109375 10.242188 3.601562 9.359375 3.84375 C 9.035156 3.914062 8.6875 3.96875 8.3125 4 C 7.945312 4.03125 6.960938 4.046875 5.359375 4.046875 Z M 5.359375 4.046875 "/></g></g></g><g fill="#000000" fill-opacity="1"><g transform="translate(205.49578, 258.210629)"><g><path d="M 31.4375 -20.515625 L 26.640625 -20.515625 L 26.640625 -22.765625 C 24.367188 -22.765625 23.101562 -22.75 22.84375 -22.71875 L 22.84375 -20.515625 L 18.078125 -20.515625 L 18.078125 -22.71875 C 18.054688 -22.75 17.125 -22.765625 15.28125 -22.765625 L 15.28125 -26.84375 L 18.125 -26.84375 L 18.125 -28.953125 L 22.84375 -28.953125 L 22.84375 -26.84375 L 26.640625 -26.84375 L 26.640625 -29 L 31.4375 -29 L 31.4375 -26.84375 L 33.921875 -26.84375 L 33.921875 -24.875 C 33.921875 -23.59375 33.925781 -22.953125 33.9375 -22.953125 C 33.945312 -22.953125 33.953125 -22.925781 33.953125 -22.875 L 33.921875 -22.765625 L 31.4375 -22.765625 Z M 8.078125 2.765625 L 4.203125 2.765625 L 3.953125 2.6875 C 3.691406 2.601562 3.445312 2.472656 3.21875 2.296875 C 2.988281 2.128906 2.800781 1.921875 2.65625 1.671875 C 2.507812 1.429688 2.425781 1.179688 2.40625 0.921875 C 2.34375 0.765625 2.3125 -3.660156 2.3125 -12.359375 C 2.3125 -21.023438 2.34375 -25.492188 2.40625 -25.765625 C 2.507812 -26.984375 3.160156 -27.675781 4.359375 -27.84375 C 4.515625 -27.863281 5.820312 -27.875 8.28125 -27.875 C 10.300781 -27.875 11.472656 -27.859375 11.796875 -27.828125 C 12.117188 -27.804688 12.382812 -27.742188 12.59375 -27.640625 C 13.289062 -27.296875 13.707031 -26.722656 13.84375 -25.921875 C 13.863281 -25.734375 13.875 -21.359375 13.875 -12.796875 C 13.875 -4.265625 13.863281 0.132812 13.84375 0.40625 C 13.738281 1.46875 13.363281 2.171875 12.71875 2.515625 C 12.425781 2.648438 12.125 2.722656 11.8125 2.734375 C 11.507812 2.753906 10.265625 2.765625 8.078125 2.765625 Z M 9.71875 -1.59375 L 9.71875 -23.640625 L 6.5625 -23.640625 L 6.5625 -1.59375 Z M 31.953125 3.84375 L 17.796875 3.84375 L 17.484375 3.71875 C 16.765625 3.5625 16.296875 3.160156 16.078125 2.515625 C 15.972656 2.253906 15.90625 1.75 15.875 1 C 15.851562 0.25 15.84375 -2.628906 15.84375 -7.640625 C 15.84375 -13.828125 15.867188 -17.015625 15.921875 -17.203125 C 16.054688 -18.210938 16.519531 -18.835938 17.3125 -19.078125 C 17.613281 -19.179688 20.175781 -19.234375 25 -19.234375 C 29.207031 -19.234375 31.394531 -19.222656 31.5625 -19.203125 C 32.09375 -19.148438 32.503906 -18.988281 32.796875 -18.71875 C 33.273438 -18.320312 33.539062 -17.828125 33.59375 -17.234375 C 33.625 -17.023438 33.640625 -10.535156 33.640625 2.234375 C 33.453125 2.660156 33.265625 2.972656 33.078125 3.171875 C 32.890625 3.378906 32.515625 3.601562 31.953125 3.84375 Z M 22.796875 -9.796875 L 22.921875 -9.84375 L 22.921875 -15.15625 L 20.078125 -15.15625 L 20.078125 -9.796875 Z M 29.515625 -9.796875 L 29.515625 -15.15625 L 26.84375 -15.15625 C 26.84375 -11.664062 26.847656 -9.898438 26.859375 -9.859375 C 26.867188 -9.816406 27.753906 -9.796875 29.515625 -9.796875 Z M 22.921875 -0.234375 L 22.875 -5.6875 L 21.515625 -5.6875 L 20.484375 -5.71875 C 20.242188 -5.71875 20.113281 -5.703125 20.09375 -5.671875 C 20.082031 -5.648438 20.078125 -4.734375 20.078125 -2.921875 L 20.078125 -0.234375 Z M 29.515625 -0.234375 L 29.515625 -5.6875 L 28.203125 -5.6875 C 27.347656 -5.6875 26.90625 -5.675781 26.875 -5.65625 C 26.851562 -5.644531 26.84375 -4.90625 26.84375 -3.4375 C 26.84375 -1.382812 26.847656 -0.335938 26.859375 -0.296875 C 26.867188 -0.253906 27.753906 -0.234375 29.515625 -0.234375 Z M 29.515625 -0.234375 "/></g></g></g><g transform="matrix(1, 0, 0, 1, 113, 273)"><g clip-path="url(#668f37a20d)"><g fill="#000000" fill-opacity="1"><g transform="translate(0.165058, 29.537425)"><g><path d="M 3.046875 -13.25 C 3.210938 -13.269531 3.519531 -13.28125 3.96875 -13.28125 C 4.195312 -13.28125 4.609375 -13.273438 5.203125 -13.265625 C 5.796875 -13.253906 6.128906 -13.25 6.203125 -13.25 C 6.378906 -13.195312 6.535156 -13.0625 6.671875 -12.84375 L 6.71875 -12.734375 L 6.71875 -11.71875 L 6.75 -10.6875 L 7.765625 -10.6875 C 8.472656 -10.664062 8.84375 -10.644531 8.875 -10.625 C 9.019531 -10.59375 9.128906 -10.503906 9.203125 -10.359375 C 9.273438 -10.273438 9.3125 -10.175781 9.3125 -10.0625 C 9.3125 -10.03125 9.300781 -9.988281 9.28125 -9.9375 C 9.207031 -9.789062 9.09375 -9.679688 8.9375 -9.609375 L 8.765625 -9.53125 L 6.75 -9.53125 L 6.75 -1.515625 L 8.765625 -1.515625 L 8.90625 -1.4375 C 9.132812 -1.320312 9.25 -1.140625 9.25 -0.890625 C 9.25 -0.710938 9.132812 -0.5625 8.90625 -0.4375 L 8.796875 -0.375 L 2.8125 -0.375 L 2.671875 -0.4375 C 2.546875 -0.519531 2.445312 -0.632812 2.375 -0.78125 L 2.328125 -0.890625 L 2.328125 -5.203125 L 2.296875 -9.53125 L 1.859375 -9.53125 C 1.679688 -9.53125 1.550781 -9.535156 1.46875 -9.546875 C 1.382812 -9.566406 1.320312 -9.585938 1.28125 -9.609375 C 1.238281 -9.628906 1.191406 -9.679688 1.140625 -9.765625 C 1.023438 -9.859375 0.96875 -9.976562 0.96875 -10.125 C 0.96875 -10.332031 1.09375 -10.492188 1.34375 -10.609375 C 1.40625 -10.640625 1.578125 -10.664062 1.859375 -10.6875 L 2.328125 -10.6875 L 2.328125 -11.6875 C 2.328125 -12.457031 2.378906 -12.90625 2.484375 -13.03125 C 2.585938 -13.175781 2.773438 -13.25 3.046875 -13.25 Z M 3.046875 -13.25 "/></g></g></g><g fill="#000000" fill-opacity="1"><g transform="translate(9.961542, 29.537425)"><g><path d="M 3.703125 -10.5 C 3.753906 -10.5 5.316406 -10.5 8.390625 -10.5 C 9.429688 -10.5 10.304688 -10.5 11.015625 -10.5 C 12.410156 -10.5 13.140625 -10.488281 13.203125 -10.46875 C 13.265625 -10.414062 13.34375 -10.363281 13.4375 -10.3125 C 13.53125 -10.21875 13.613281 -9.957031 13.6875 -9.53125 C 13.769531 -9.019531 13.8125 -8.503906 13.8125 -7.984375 C 13.8125 -7.828125 13.800781 -7.65625 13.78125 -7.46875 C 13.769531 -6.945312 13.753906 -6.546875 13.734375 -6.265625 C 13.703125 -6.023438 13.6875 -5.878906 13.6875 -5.828125 C 13.6875 -5.828125 13.6875 -5.820312 13.6875 -5.8125 C 13.695312 -5.800781 13.703125 -5.796875 13.703125 -5.796875 C 13.703125 -5.765625 13.695312 -5.722656 13.6875 -5.671875 C 13.664062 -5.546875 13.632812 -5.398438 13.59375 -5.234375 C 13.5625 -5.066406 13.535156 -4.9375 13.515625 -4.84375 C 13.503906 -4.757812 13.476562 -4.695312 13.4375 -4.65625 C 13.40625 -4.613281 13.34375 -4.570312 13.25 -4.53125 L 13.171875 -4.484375 L 5.859375 -4.484375 L 5.859375 -1.625 C 5.859375 -1.601562 7.070312 -1.59375 9.5 -1.59375 L 13.109375 -1.59375 L 13.21875 -1.53125 C 13.382812 -1.445312 13.484375 -1.320312 13.515625 -1.15625 C 13.554688 -1.082031 13.578125 -1.007812 13.578125 -0.9375 C 13.578125 -0.757812 13.453125 -0.609375 13.203125 -0.484375 L 13.09375 -0.4375 L 7.609375 -0.4375 L 2.125 -0.40625 L 2.078125 -0.40625 C 1.753906 -0.4375 1.554688 -0.632812 1.484375 -1 C 1.460938 -1.070312 1.453125 -2.269531 1.453125 -4.59375 C 1.453125 -7.050781 1.472656 -8.363281 1.515625 -8.53125 C 1.671875 -9.332031 2.109375 -9.90625 2.828125 -10.25 C 3.085938 -10.363281 3.378906 -10.445312 3.703125 -10.5 Z M 9.140625 -9.3125 L 7.15625 -9.3125 C 6.957031 -9.289062 6.785156 -9.242188 6.640625 -9.171875 C 6.265625 -8.972656 6.007812 -8.664062 5.875 -8.25 C 5.863281 -8.1875 5.859375 -7.703125 5.859375 -6.796875 L 5.859375 -5.484375 L 7.53125 -5.484375 C 8.644531 -5.484375 9.203125 -5.484375 9.203125 -5.484375 C 9.304688 -5.742188 9.367188 -6.378906 9.390625 -7.390625 C 9.390625 -7.503906 9.390625 -7.613281 9.390625 -7.71875 C 9.390625 -8.039062 9.375 -8.347656 9.34375 -8.640625 C 9.25 -9.046875 9.179688 -9.269531 9.140625 -9.3125 Z M 9.140625 -9.3125 "/></g></g></g><g fill="#000000" fill-opacity="1"><g transform="translate(24.75073, 29.537425)"><g><path d="M 3.671875 -10.359375 C 3.722656 -10.359375 4.695312 -10.363281 6.59375 -10.375 C 8.488281 -10.382812 9.753906 -10.390625 10.390625 -10.390625 C 11.671875 -10.390625 12.328125 -10.378906 12.359375 -10.359375 C 12.554688 -10.328125 12.691406 -10.238281 12.765625 -10.09375 C 12.816406 -10.019531 12.847656 -9.953125 12.859375 -9.890625 C 12.867188 -9.828125 12.875 -9.785156 12.875 -9.765625 C 12.875 -9.679688 12.847656 -9.609375 12.796875 -9.546875 C 12.722656 -9.410156 12.601562 -9.3125 12.4375 -9.25 C 12.351562 -9.21875 11.445312 -9.203125 9.71875 -9.203125 L 7.125 -9.171875 L 6.9375 -9.125 C 6.695312 -9.070312 6.488281 -8.953125 6.3125 -8.765625 C 6.21875 -8.660156 6.140625 -8.546875 6.078125 -8.421875 C 6.003906 -8.242188 5.9375 -7.984375 5.875 -7.640625 C 5.820312 -7.117188 5.796875 -6.351562 5.796875 -5.34375 C 5.796875 -4.332031 5.820312 -3.09375 5.875 -1.625 L 9.359375 -1.625 C 11.585938 -1.625 12.75 -1.59375 12.84375 -1.53125 C 12.84375 -1.519531 12.894531 -1.46875 13 -1.375 C 13.070312 -1.300781 13.117188 -1.222656 13.140625 -1.140625 C 13.160156 -1.066406 13.171875 -1 13.171875 -0.9375 C 13.117188 -0.726562 12.960938 -0.566406 12.703125 -0.453125 C 12.617188 -0.421875 10.859375 -0.40625 7.421875 -0.40625 C 7.078125 -0.40625 6.617188 -0.40625 6.046875 -0.40625 C 4.046875 -0.40625 2.878906 -0.410156 2.546875 -0.421875 C 2.210938 -0.441406 1.984375 -0.53125 1.859375 -0.6875 C 1.734375 -0.851562 1.65625 -1.019531 1.625 -1.1875 C 1.550781 -1.507812 1.503906 -2.25 1.484375 -3.40625 C 1.460938 -4.03125 1.453125 -4.613281 1.453125 -5.15625 C 1.453125 -5.945312 1.472656 -6.628906 1.515625 -7.203125 C 1.566406 -8.242188 1.765625 -9 2.109375 -9.46875 C 2.515625 -10.03125 3.035156 -10.328125 3.671875 -10.359375 Z M 3.671875 -10.359375 "/></g></g></g><g fill="#000000" fill-opacity="1"><g transform="translate(38.892218, 29.537425)"><g><path d="M 2.1875 -15.96875 C 2.3125 -15.96875 2.867188 -15.96875 3.859375 -15.96875 C 4.722656 -15.96875 5.21875 -15.957031 5.34375 -15.9375 C 5.46875 -15.925781 5.59375 -15.867188 5.71875 -15.765625 C 5.84375 -15.617188 5.90625 -15.425781 5.90625 -15.1875 C 5.90625 -15.082031 5.90625 -14.03125 5.90625 -12.03125 L 5.9375 -10.625 L 12.796875 -10.625 L 12.953125 -10.578125 C 13.171875 -10.503906 13.296875 -10.367188 13.328125 -10.171875 C 13.367188 -10.097656 13.390625 -8.578125 13.390625 -5.609375 C 13.390625 -2.640625 13.390625 -1.113281 13.390625 -1.03125 C 13.347656 -0.757812 13.210938 -0.550781 12.984375 -0.40625 L 12.84375 -0.34375 L 9.546875 -0.34375 L 9.390625 -0.40625 C 9.191406 -0.507812 9.054688 -0.6875 8.984375 -0.9375 C 8.953125 -1.03125 8.9375 -2.460938 8.9375 -5.234375 L 8.9375 -9.359375 L 7.46875 -9.359375 C 6.476562 -9.359375 5.972656 -9.359375 5.953125 -9.359375 C 5.941406 -9.359375 5.9375 -7.972656 5.9375 -5.203125 C 5.9375 -2.867188 5.925781 -1.550781 5.90625 -1.25 C 5.882812 -0.957031 5.84375 -0.75 5.78125 -0.625 C 5.6875 -0.507812 5.578125 -0.425781 5.453125 -0.375 C 5.429688 -0.375 5.269531 -0.375 4.96875 -0.375 C 4.675781 -0.375 4.242188 -0.375 3.671875 -0.375 L 2.03125 -0.375 L 1.921875 -0.40625 C 1.753906 -0.507812 1.632812 -0.632812 1.5625 -0.78125 L 1.515625 -0.890625 L 1.484375 -7.359375 L 1.484375 -15.375 L 1.53125 -15.515625 C 1.59375 -15.679688 1.710938 -15.816406 1.890625 -15.921875 C 1.960938 -15.941406 2.0625 -15.957031 2.1875 -15.96875 Z M 2.1875 -15.96875 "/></g></g></g><g fill="#000000" fill-opacity="1"><g transform="translate(53.708393, 29.537425)"><g><path d="M 4.015625 -10.546875 C 4.015625 -10.546875 6.472656 -10.546875 11.390625 -10.546875 C 15.867188 -10.546875 18.21875 -10.53125 18.4375 -10.5 C 18.613281 -10.457031 18.742188 -10.320312 18.828125 -10.09375 L 18.890625 -10.015625 L 18.921875 -5.484375 C 18.921875 -2.441406 18.898438 -0.882812 18.859375 -0.8125 C 18.804688 -0.5625 18.65625 -0.390625 18.40625 -0.296875 C 18.351562 -0.265625 17.785156 -0.25 16.703125 -0.25 C 15.617188 -0.25 15.035156 -0.265625 14.953125 -0.296875 C 14.785156 -0.367188 14.660156 -0.476562 14.578125 -0.625 C 14.554688 -0.695312 14.535156 -0.757812 14.515625 -0.8125 C 14.492188 -0.863281 14.484375 -1.394531 14.484375 -2.40625 C 14.484375 -3.082031 14.484375 -3.972656 14.484375 -5.078125 L 14.484375 -9.171875 L 12.796875 -9.171875 L 12.390625 -9.140625 C 12.390625 -9.128906 12.390625 -7.773438 12.390625 -5.078125 C 12.398438 -3.722656 12.40625 -2.695312 12.40625 -2 C 12.40625 -1.289062 12.398438 -0.910156 12.390625 -0.859375 C 12.335938 -0.578125 12.175781 -0.390625 11.90625 -0.296875 C 11.84375 -0.273438 11.5625 -0.265625 11.0625 -0.265625 C 10.8125 -0.265625 10.5 -0.265625 10.125 -0.265625 L 8.5 -0.265625 L 8.390625 -0.328125 C 8.234375 -0.398438 8.117188 -0.515625 8.046875 -0.671875 L 7.984375 -0.78125 L 7.953125 -4.984375 L 7.953125 -9.171875 L 7.046875 -9.171875 L 6.859375 -9.125 C 6.347656 -8.925781 6.050781 -8.519531 5.96875 -7.90625 C 5.925781 -7.800781 5.90625 -6.597656 5.90625 -4.296875 C 5.90625 -3.535156 5.90625 -2.894531 5.90625 -2.375 C 5.90625 -1.351562 5.894531 -0.8125 5.875 -0.75 C 5.84375 -0.613281 5.773438 -0.5 5.671875 -0.40625 C 5.554688 -0.332031 5.421875 -0.285156 5.265625 -0.265625 C 5.117188 -0.253906 4.597656 -0.25 3.703125 -0.25 C 2.597656 -0.25 2.003906 -0.265625 1.921875 -0.296875 C 1.753906 -0.347656 1.632812 -0.457031 1.5625 -0.625 L 1.484375 -0.734375 L 1.484375 -3.703125 C 1.484375 -4.429688 1.484375 -5.078125 1.484375 -5.640625 C 1.484375 -7.328125 1.5 -8.242188 1.53125 -8.390625 C 1.570312 -8.679688 1.65625 -8.929688 1.78125 -9.140625 C 2.144531 -9.867188 2.722656 -10.320312 3.515625 -10.5 C 3.566406 -10.519531 3.734375 -10.535156 4.015625 -10.546875 Z M 4.015625 -10.546875 "/></g></g></g><g fill="#000000" fill-opacity="1"><g transform="translate(74.083995, 29.537425)"><g><path d="M 3.703125 -10.5 C 3.753906 -10.5 5.316406 -10.5 8.390625 -10.5 C 9.429688 -10.5 10.304688 -10.5 11.015625 -10.5 C 12.410156 -10.5 13.140625 -10.488281 13.203125 -10.46875 C 13.265625 -10.414062 13.34375 -10.363281 13.4375 -10.3125 C 13.53125 -10.21875 13.613281 -9.957031 13.6875 -9.53125 C 13.769531 -9.019531 13.8125 -8.503906 13.8125 -7.984375 C 13.8125 -7.828125 13.800781 -7.65625 13.78125 -7.46875 C 13.769531 -6.945312 13.753906 -6.546875 13.734375 -6.265625 C 13.703125 -6.023438 13.6875 -5.878906 13.6875 -5.828125 C 13.6875 -5.828125 13.6875 -5.820312 13.6875 -5.8125 C 13.695312 -5.800781 13.703125 -5.796875 13.703125 -5.796875 C 13.703125 -5.765625 13.695312 -5.722656 13.6875 -5.671875 C 13.664062 -5.546875 13.632812 -5.398438 13.59375 -5.234375 C 13.5625 -5.066406 13.535156 -4.9375 13.515625 -4.84375 C 13.503906 -4.757812 13.476562 -4.695312 13.4375 -4.65625 C 13.40625 -4.613281 13.34375 -4.570312 13.25 -4.53125 L 13.171875 -4.484375 L 5.859375 -4.484375 L 5.859375 -1.625 C 5.859375 -1.601562 7.070312 -1.59375 9.5 -1.59375 L 13.109375 -1.59375 L 13.21875 -1.53125 C 13.382812 -1.445312 13.484375 -1.320312 13.515625 -1.15625 C 13.554688 -1.082031 13.578125 -1.007812 13.578125 -0.9375 C 13.578125 -0.757812 13.453125 -0.609375 13.203125 -0.484375 L 13.09375 -0.4375 L 7.609375 -0.4375 L 2.125 -0.40625 L 2.078125 -0.40625 C 1.753906 -0.4375 1.554688 -0.632812 1.484375 -1 C 1.460938 -1.070312 1.453125 -2.269531 1.453125 -4.59375 C 1.453125 -7.050781 1.472656 -8.363281 1.515625 -8.53125 C 1.671875 -9.332031 2.109375 -9.90625 2.828125 -10.25 C 3.085938 -10.363281 3.378906 -10.445312 3.703125 -10.5 Z M 9.140625 -9.3125 L 7.15625 -9.3125 C 6.957031 -9.289062 6.785156 -9.242188 6.640625 -9.171875 C 6.265625 -8.972656 6.007812 -8.664062 5.875 -8.25 C 5.863281 -8.1875 5.859375 -7.703125 5.859375 -6.796875 L 5.859375 -5.484375 L 7.53125 -5.484375 C 8.644531 -5.484375 9.203125 -5.484375 9.203125 -5.484375 C 9.304688 -5.742188 9.367188 -6.378906 9.390625 -7.390625 C 9.390625 -7.503906 9.390625 -7.613281 9.390625 -7.71875 C 9.390625 -8.039062 9.375 -8.347656 9.34375 -8.640625 C 9.25 -9.046875 9.179688 -9.269531 9.140625 -9.3125 Z M 9.140625 -9.3125 "/></g></g></g><g fill="#000000" fill-opacity="1"><g transform="translate(88.873183, 29.537425)"><g><path d="M 3.515625 -10.5 C 3.523438 -10.5 5.1875 -10.507812 8.5 -10.53125 L 12.5 -10.53125 C 12.925781 -10.53125 13.164062 -10.296875 13.21875 -9.828125 L 13.28125 -1.046875 C 13.28125 -0.578125 13.109375 -0.316406 12.765625 -0.265625 C 12.765625 -0.253906 11.21875 -0.25 8.125 -0.25 C 6.570312 -0.25 4.640625 -0.25 2.328125 -0.25 C 2.015625 -0.25 1.800781 -0.3125 1.6875 -0.4375 C 1.570312 -0.570312 1.515625 -0.785156 1.515625 -1.078125 C 1.472656 -3.503906 1.453125 -5.023438 1.453125 -5.640625 C 1.453125 -6.253906 1.453125 -6.695312 1.453125 -6.96875 C 1.472656 -7.6875 1.5 -8.207031 1.53125 -8.53125 C 1.59375 -9.082031 1.8125 -9.515625 2.1875 -9.828125 C 2.539062 -10.179688 2.984375 -10.40625 3.515625 -10.5 Z M 9.140625 -1.515625 C 9.128906 -6.691406 9.113281 -9.289062 9.09375 -9.3125 C 9.070312 -9.332031 8.816406 -9.34375 8.328125 -9.34375 C 7.847656 -9.351562 7.460938 -9.359375 7.171875 -9.359375 C 6.296875 -9.359375 5.847656 -9.144531 5.828125 -8.71875 C 5.804688 -8.300781 5.796875 -7.804688 5.796875 -7.234375 C 5.796875 -6.859375 5.796875 -6.414062 5.796875 -5.90625 C 5.796875 -2.925781 5.785156 -1.429688 5.765625 -1.421875 C 5.753906 -1.410156 5.75 -1.40625 5.75 -1.40625 C 5.75 -1.40625 6.359375 -1.40625 7.578125 -1.40625 L 9.125 -1.4375 Z M 9.140625 -1.515625 "/></g></g></g><g fill="#000000" fill-opacity="1"><g transform="translate(103.608397, 29.537425)"><g><path d="M 0.8125 -10.3125 C 0.882812 -10.363281 0.957031 -10.398438 1.03125 -10.421875 C 1.113281 -10.453125 1.695312 -10.46875 2.78125 -10.46875 L 4.421875 -10.46875 L 4.5 -10.390625 C 4.695312 -10.316406 4.84375 -10.097656 4.9375 -9.734375 C 4.96875 -9.628906 5.03125 -9.425781 5.125 -9.125 C 5.175781 -8.976562 5.238281 -8.796875 5.3125 -8.578125 C 5.363281 -8.398438 5.390625 -8.285156 5.390625 -8.234375 C 5.410156 -8.191406 5.46875 -8.019531 5.5625 -7.71875 C 5.664062 -7.34375 5.738281 -7.097656 5.78125 -6.984375 C 5.789062 -6.953125 5.796875 -6.925781 5.796875 -6.90625 C 5.796875 -6.851562 5.800781 -6.828125 5.8125 -6.828125 C 5.820312 -6.828125 5.828125 -6.816406 5.828125 -6.796875 C 5.828125 -6.773438 5.847656 -6.710938 5.890625 -6.609375 C 5.941406 -6.503906 6.070312 -6.0625 6.28125 -5.28125 C 6.351562 -5.101562 6.410156 -4.9375 6.453125 -4.78125 C 6.460938 -4.738281 6.488281 -4.65625 6.53125 -4.53125 C 6.582031 -4.40625 6.617188 -4.316406 6.640625 -4.265625 C 6.785156 -3.773438 6.863281 -3.46875 6.875 -3.34375 C 6.914062 -3.3125 6.9375 -3.296875 6.9375 -3.296875 C 6.9375 -3.304688 7.257812 -4.238281 7.90625 -6.09375 C 8.664062 -8.382812 9.082031 -9.640625 9.15625 -9.859375 C 9.238281 -10.085938 9.316406 -10.226562 9.390625 -10.28125 C 9.484375 -10.375 9.597656 -10.425781 9.734375 -10.4375 C 9.867188 -10.457031 10.359375 -10.46875 11.203125 -10.46875 C 12.066406 -10.46875 12.5625 -10.457031 12.6875 -10.4375 C 12.8125 -10.425781 12.925781 -10.375 13.03125 -10.28125 C 13.144531 -10.175781 13.226562 -10.03125 13.28125 -9.84375 C 13.351562 -9.644531 13.40625 -9.507812 13.4375 -9.4375 C 13.476562 -9.28125 13.503906 -9.191406 13.515625 -9.171875 C 13.535156 -9.097656 13.71875 -8.539062 14.0625 -7.5 C 14.3125 -6.757812 14.453125 -6.335938 14.484375 -6.234375 C 14.597656 -5.890625 14.65625 -5.707031 14.65625 -5.6875 C 14.664062 -5.675781 14.679688 -5.632812 14.703125 -5.5625 C 14.703125 -5.519531 14.722656 -5.4375 14.765625 -5.3125 C 14.816406 -5.1875 14.867188 -5.046875 14.921875 -4.890625 C 14.972656 -4.742188 15.023438 -4.585938 15.078125 -4.421875 L 15.296875 -3.78125 C 15.335938 -3.738281 15.359375 -3.710938 15.359375 -3.703125 C 15.359375 -3.679688 15.375 -3.597656 15.40625 -3.453125 C 15.445312 -3.304688 15.472656 -3.226562 15.484375 -3.21875 L 15.515625 -3.296875 C 15.535156 -3.367188 15.570312 -3.46875 15.625 -3.59375 C 15.800781 -3.96875 15.960938 -4.40625 16.109375 -4.90625 C 16.179688 -5.125 16.34375 -5.546875 16.59375 -6.171875 C 16.632812 -6.304688 16.78125 -6.675781 17.03125 -7.28125 C 17.707031 -9.050781 18.066406 -9.988281 18.109375 -10.09375 C 18.140625 -10.21875 18.238281 -10.316406 18.40625 -10.390625 C 18.476562 -10.421875 18.585938 -10.441406 18.734375 -10.453125 C 18.890625 -10.460938 18.992188 -10.46875 19.046875 -10.46875 C 19.234375 -10.46875 19.359375 -10.453125 19.421875 -10.421875 C 19.585938 -10.347656 19.71875 -10.238281 19.8125 -10.09375 C 19.820312 -10 19.835938 -9.878906 19.859375 -9.734375 C 19.859375 -9.597656 19.78125 -9.3125 19.625 -8.875 C 19.625 -8.875 19.617188 -8.863281 19.609375 -8.84375 C 19.597656 -8.832031 19.585938 -8.8125 19.578125 -8.78125 C 19.566406 -8.757812 19.5625 -8.726562 19.5625 -8.6875 C 19.507812 -8.59375 19.472656 -8.515625 19.453125 -8.453125 C 19.421875 -8.410156 19.40625 -8.382812 19.40625 -8.375 C 19.40625 -8.363281 19.382812 -8.316406 19.34375 -8.234375 C 19.3125 -8.140625 19.285156 -8.039062 19.265625 -7.9375 C 19.210938 -7.820312 19.164062 -7.710938 19.125 -7.609375 C 19.09375 -7.503906 18.976562 -7.207031 18.78125 -6.71875 C 18.75 -6.613281 18.722656 -6.53125 18.703125 -6.46875 C 18.679688 -6.457031 18.617188 -6.316406 18.515625 -6.046875 C 18.472656 -5.929688 18.445312 -5.875 18.4375 -5.875 C 18.414062 -5.875 18.40625 -5.867188 18.40625 -5.859375 L 18.40625 -5.78125 C 18.40625 -5.757812 18.394531 -5.75 18.375 -5.75 C 18.351562 -5.75 18.34375 -5.738281 18.34375 -5.71875 C 18.34375 -5.644531 18.289062 -5.457031 18.1875 -5.15625 C 18.164062 -5.132812 18.15625 -5.125 18.15625 -5.125 C 18.144531 -5.101562 18.140625 -5.085938 18.140625 -5.078125 C 18.117188 -5.015625 18.082031 -4.914062 18.03125 -4.78125 C 17.96875 -4.613281 17.929688 -4.519531 17.921875 -4.5 C 17.898438 -4.5 17.875 -4.421875 17.84375 -4.265625 C 17.78125 -4.117188 17.742188 -4.03125 17.734375 -4 C 17.691406 -3.90625 17.660156 -3.832031 17.640625 -3.78125 C 17.640625 -3.757812 17.632812 -3.75 17.625 -3.75 C 17.625 -3.75 17.601562 -3.6875 17.5625 -3.5625 C 17.457031 -3.3125 17.382812 -3.140625 17.34375 -3.046875 C 17.34375 -2.972656 17.34375 -2.9375 17.34375 -2.9375 C 17.34375 -2.925781 17.328125 -2.890625 17.296875 -2.828125 C 17.203125 -2.648438 17.117188 -2.460938 17.046875 -2.265625 C 16.960938 -2.066406 16.910156 -1.929688 16.890625 -1.859375 C 16.890625 -1.835938 16.863281 -1.75 16.8125 -1.59375 C 16.769531 -1.488281 16.738281 -1.4375 16.71875 -1.4375 C 16.707031 -1.4375 16.703125 -1.425781 16.703125 -1.40625 C 16.703125 -1.382812 16.679688 -1.320312 16.640625 -1.21875 C 16.609375 -1.125 16.566406 -1.019531 16.515625 -0.90625 C 16.472656 -0.789062 16.4375 -0.710938 16.40625 -0.671875 C 16.375 -0.546875 16.285156 -0.445312 16.140625 -0.375 L 16.03125 -0.296875 L 12.578125 -0.296875 L 12.5 -0.375 C 12.351562 -0.425781 12.242188 -0.507812 12.171875 -0.625 C 12.128906 -0.695312 12.066406 -0.859375 11.984375 -1.109375 C 11.566406 -2.242188 11.046875 -3.769531 10.421875 -5.6875 C 10.160156 -6.476562 10.015625 -6.894531 9.984375 -6.9375 C 9.984375 -6.9375 9.957031 -6.859375 9.90625 -6.703125 C 9.863281 -6.546875 9.800781 -6.347656 9.71875 -6.109375 C 9.644531 -5.867188 9.550781 -5.601562 9.4375 -5.3125 C 8.9375 -3.851562 8.550781 -2.707031 8.28125 -1.875 C 8.007812 -1.050781 7.859375 -0.625 7.828125 -0.59375 C 7.773438 -0.488281 7.6875 -0.40625 7.5625 -0.34375 C 7.488281 -0.3125 6.875 -0.296875 5.71875 -0.296875 L 3.96875 -0.296875 L 3.828125 -0.375 C 3.679688 -0.425781 3.582031 -0.507812 3.53125 -0.625 C 3.519531 -0.695312 3.34375 -1.242188 3 -2.265625 C 2.5625 -3.472656 2.304688 -4.175781 2.234375 -4.375 C 1.960938 -5.175781 1.414062 -6.8125 0.59375 -9.28125 C 0.539062 -9.445312 0.515625 -9.597656 0.515625 -9.734375 C 0.515625 -9.992188 0.613281 -10.1875 0.8125 -10.3125 Z M 0.8125 -10.3125 "/></g></g></g><g fill="#000000" fill-opacity="1"><g transform="translate(123.957013, 29.537425)"><g><path d="M 1.625 -3.703125 L 1.75 -3.78125 L 3.5625 -3.75 C 4.78125 -3.75 5.421875 -3.734375 5.484375 -3.703125 C 5.640625 -3.628906 5.742188 -3.53125 5.796875 -3.40625 C 5.867188 -3.257812 5.90625 -2.753906 5.90625 -1.890625 C 5.90625 -1.390625 5.878906 -0.957031 5.828125 -0.59375 C 5.773438 -0.363281 5.660156 -0.191406 5.484375 -0.078125 L 5.375 -0.03125 L 3.5625 -0.03125 C 2.394531 -0.03125 1.765625 -0.046875 1.671875 -0.078125 C 1.523438 -0.117188 1.414062 -0.21875 1.34375 -0.375 C 1.257812 -0.488281 1.21875 -1.007812 1.21875 -1.9375 L 1.21875 -3.234375 L 1.296875 -3.34375 C 1.347656 -3.488281 1.457031 -3.609375 1.625 -3.703125 Z M 1.625 -3.703125 "/></g></g></g><g fill="#000000" fill-opacity="1"><g transform="translate(131.729437, 29.537425)"><g><path d="M 3.046875 -13.25 C 3.210938 -13.269531 3.519531 -13.28125 3.96875 -13.28125 C 4.195312 -13.28125 4.609375 -13.273438 5.203125 -13.265625 C 5.796875 -13.253906 6.128906 -13.25 6.203125 -13.25 C 6.378906 -13.195312 6.535156 -13.0625 6.671875 -12.84375 L 6.71875 -12.734375 L 6.71875 -11.71875 L 6.75 -10.6875 L 7.765625 -10.6875 C 8.472656 -10.664062 8.84375 -10.644531 8.875 -10.625 C 9.019531 -10.59375 9.128906 -10.503906 9.203125 -10.359375 C 9.273438 -10.273438 9.3125 -10.175781 9.3125 -10.0625 C 9.3125 -10.03125 9.300781 -9.988281 9.28125 -9.9375 C 9.207031 -9.789062 9.09375 -9.679688 8.9375 -9.609375 L 8.765625 -9.53125 L 6.75 -9.53125 L 6.75 -1.515625 L 8.765625 -1.515625 L 8.90625 -1.4375 C 9.132812 -1.320312 9.25 -1.140625 9.25 -0.890625 C 9.25 -0.710938 9.132812 -0.5625 8.90625 -0.4375 L 8.796875 -0.375 L 2.8125 -0.375 L 2.671875 -0.4375 C 2.546875 -0.519531 2.445312 -0.632812 2.375 -0.78125 L 2.328125 -0.890625 L 2.328125 -5.203125 L 2.296875 -9.53125 L 1.859375 -9.53125 C 1.679688 -9.53125 1.550781 -9.535156 1.46875 -9.546875 C 1.382812 -9.566406 1.320312 -9.585938 1.28125 -9.609375 C 1.238281 -9.628906 1.191406 -9.679688 1.140625 -9.765625 C 1.023438 -9.859375 0.96875 -9.976562 0.96875 -10.125 C 0.96875 -10.332031 1.09375 -10.492188 1.34375 -10.609375 C 1.40625 -10.640625 1.578125 -10.664062 1.859375 -10.6875 L 2.328125 -10.6875 L 2.328125 -11.6875 C 2.328125 -12.457031 2.378906 -12.90625 2.484375 -13.03125 C 2.585938 -13.175781 2.773438 -13.25 3.046875 -13.25 Z M 3.046875 -13.25 "/></g></g></g><g fill="#000000" fill-opacity="1"><g transform="translate(141.525921, 29.537425)"><g><path d="M 0.8125 -10.3125 C 0.882812 -10.363281 0.957031 -10.398438 1.03125 -10.421875 C 1.113281 -10.453125 1.695312 -10.46875 2.78125 -10.46875 L 4.421875 -10.46875 L 4.5 -10.390625 C 4.695312 -10.316406 4.84375 -10.097656 4.9375 -9.734375 C 4.96875 -9.628906 5.03125 -9.425781 5.125 -9.125 C 5.175781 -8.976562 5.238281 -8.796875 5.3125 -8.578125 C 5.363281 -8.398438 5.390625 -8.285156 5.390625 -8.234375 C 5.410156 -8.191406 5.46875 -8.019531 5.5625 -7.71875 C 5.664062 -7.34375 5.738281 -7.097656 5.78125 -6.984375 C 5.789062 -6.953125 5.796875 -6.925781 5.796875 -6.90625 C 5.796875 -6.851562 5.800781 -6.828125 5.8125 -6.828125 C 5.820312 -6.828125 5.828125 -6.816406 5.828125 -6.796875 C 5.828125 -6.773438 5.847656 -6.710938 5.890625 -6.609375 C 5.941406 -6.503906 6.070312 -6.0625 6.28125 -5.28125 C 6.351562 -5.101562 6.410156 -4.9375 6.453125 -4.78125 C 6.460938 -4.738281 6.488281 -4.65625 6.53125 -4.53125 C 6.582031 -4.40625 6.617188 -4.316406 6.640625 -4.265625 C 6.785156 -3.773438 6.863281 -3.46875 6.875 -3.34375 C 6.914062 -3.3125 6.9375 -3.296875 6.9375 -3.296875 C 6.9375 -3.304688 7.257812 -4.238281 7.90625 -6.09375 C 8.664062 -8.382812 9.082031 -9.640625 9.15625 -9.859375 C 9.238281 -10.085938 9.316406 -10.226562 9.390625 -10.28125 C 9.484375 -10.375 9.597656 -10.425781 9.734375 -10.4375 C 9.867188 -10.457031 10.359375 -10.46875 11.203125 -10.46875 C 12.066406 -10.46875 12.5625 -10.457031 12.6875 -10.4375 C 12.8125 -10.425781 12.925781 -10.375 13.03125 -10.28125 C 13.144531 -10.175781 13.226562 -10.03125 13.28125 -9.84375 C 13.351562 -9.644531 13.40625 -9.507812 13.4375 -9.4375 C 13.476562 -9.28125 13.503906 -9.191406 13.515625 -9.171875 C 13.535156 -9.097656 13.71875 -8.539062 14.0625 -7.5 C 14.3125 -6.757812 14.453125 -6.335938 14.484375 -6.234375 C 14.597656 -5.890625 14.65625 -5.707031 14.65625 -5.6875 C 14.664062 -5.675781 14.679688 -5.632812 14.703125 -5.5625 C 14.703125 -5.519531 14.722656 -5.4375 14.765625 -5.3125 C 14.816406 -5.1875 14.867188 -5.046875 14.921875 -4.890625 C 14.972656 -4.742188 15.023438 -4.585938 15.078125 -4.421875 L 15.296875 -3.78125 C 15.335938 -3.738281 15.359375 -3.710938 15.359375 -3.703125 C 15.359375 -3.679688 15.375 -3.597656 15.40625 -3.453125 C 15.445312 -3.304688 15.472656 -3.226562 15.484375 -3.21875 L 15.515625 -3.296875 C 15.535156 -3.367188 15.570312 -3.46875 15.625 -3.59375 C 15.800781 -3.96875 15.960938 -4.40625 16.109375 -4.90625 C 16.179688 -5.125 16.34375 -5.546875 16.59375 -6.171875 C 16.632812 -6.304688 16.78125 -6.675781 17.03125 -7.28125 C 17.707031 -9.050781 18.066406 -9.988281 18.109375 -10.09375 C 18.140625 -10.21875 18.238281 -10.316406 18.40625 -10.390625 C 18.476562 -10.421875 18.585938 -10.441406 18.734375 -10.453125 C 18.890625 -10.460938 18.992188 -10.46875 19.046875 -10.46875 C 19.234375 -10.46875 19.359375 -10.453125 19.421875 -10.421875 C 19.585938 -10.347656 19.71875 -10.238281 19.8125 -10.09375 C 19.820312 -10 19.835938 -9.878906 19.859375 -9.734375 C 19.859375 -9.597656 19.78125 -9.3125 19.625 -8.875 C 19.625 -8.875 19.617188 -8.863281 19.609375 -8.84375 C 19.597656 -8.832031 19.585938 -8.8125 19.578125 -8.78125 C 19.566406 -8.757812 19.5625 -8.726562 19.5625 -8.6875 C 19.507812 -8.59375 19.472656 -8.515625 19.453125 -8.453125 C 19.421875 -8.410156 19.40625 -8.382812 19.40625 -8.375 C 19.40625 -8.363281 19.382812 -8.316406 19.34375 -8.234375 C 19.3125 -8.140625 19.285156 -8.039062 19.265625 -7.9375 C 19.210938 -7.820312 19.164062 -7.710938 19.125 -7.609375 C 19.09375 -7.503906 18.976562 -7.207031 18.78125 -6.71875 C 18.75 -6.613281 18.722656 -6.53125 18.703125 -6.46875 C 18.679688 -6.457031 18.617188 -6.316406 18.515625 -6.046875 C 18.472656 -5.929688 18.445312 -5.875 18.4375 -5.875 C 18.414062 -5.875 18.40625 -5.867188 18.40625 -5.859375 L 18.40625 -5.78125 C 18.40625 -5.757812 18.394531 -5.75 18.375 -5.75 C 18.351562 -5.75 18.34375 -5.738281 18.34375 -5.71875 C 18.34375 -5.644531 18.289062 -5.457031 18.1875 -5.15625 C 18.164062 -5.132812 18.15625 -5.125 18.15625 -5.125 C 18.144531 -5.101562 18.140625 -5.085938 18.140625 -5.078125 C 18.117188 -5.015625 18.082031 -4.914062 18.03125 -4.78125 C 17.96875 -4.613281 17.929688 -4.519531 17.921875 -4.5 C 17.898438 -4.5 17.875 -4.421875 17.84375 -4.265625 C 17.78125 -4.117188 17.742188 -4.03125 17.734375 -4 C 17.691406 -3.90625 17.660156 -3.832031 17.640625 -3.78125 C 17.640625 -3.757812 17.632812 -3.75 17.625 -3.75 C 17.625 -3.75 17.601562 -3.6875 17.5625 -3.5625 C 17.457031 -3.3125 17.382812 -3.140625 17.34375 -3.046875 C 17.34375 -2.972656 17.34375 -2.9375 17.34375 -2.9375 C 17.34375 -2.925781 17.328125 -2.890625 17.296875 -2.828125 C 17.203125 -2.648438 17.117188 -2.460938 17.046875 -2.265625 C 16.960938 -2.066406 16.910156 -1.929688 16.890625 -1.859375 C 16.890625 -1.835938 16.863281 -1.75 16.8125 -1.59375 C 16.769531 -1.488281 16.738281 -1.4375 16.71875 -1.4375 C 16.707031 -1.4375 16.703125 -1.425781 16.703125 -1.40625 C 16.703125 -1.382812 16.679688 -1.320312 16.640625 -1.21875 C 16.609375 -1.125 16.566406 -1.019531 16.515625 -0.90625 C 16.472656 -0.789062 16.4375 -0.710938 16.40625 -0.671875 C 16.375 -0.546875 16.285156 -0.445312 16.140625 -0.375 L 16.03125 -0.296875 L 12.578125 -0.296875 L 12.5 -0.375 C 12.351562 -0.425781 12.242188 -0.507812 12.171875 -0.625 C 12.128906 -0.695312 12.066406 -0.859375 11.984375 -1.109375 C 11.566406 -2.242188 11.046875 -3.769531 10.421875 -5.6875 C 10.160156 -6.476562 10.015625 -6.894531 9.984375 -6.9375 C 9.984375 -6.9375 9.957031 -6.859375 9.90625 -6.703125 C 9.863281 -6.546875 9.800781 -6.347656 9.71875 -6.109375 C 9.644531 -5.867188 9.550781 -5.601562 9.4375 -5.3125 C 8.9375 -3.851562 8.550781 -2.707031 8.28125 -1.875 C 8.007812 -1.050781 7.859375 -0.625 7.828125 -0.59375 C 7.773438 -0.488281 7.6875 -0.40625 7.5625 -0.34375 C 7.488281 -0.3125 6.875 -0.296875 5.71875 -0.296875 L 3.96875 -0.296875 L 3.828125 -0.375 C 3.679688 -0.425781 3.582031 -0.507812 3.53125 -0.625 C 3.519531 -0.695312 3.34375 -1.242188 3 -2.265625 C 2.5625 -3.472656 2.304688 -4.175781 2.234375 -4.375 C 1.960938 -5.175781 1.414062 -6.8125 0.59375 -9.28125 C 0.539062 -9.445312 0.515625 -9.597656 0.515625 -9.734375 C 0.515625 -9.992188 0.613281 -10.1875 0.8125 -10.3125 Z M 0.8125 -10.3125 "/></g></g></g></g></g></svg>